<?xml version="1.0" standalone="no"?>
<!DOCTYPE svg PUBLIC "-//W3C//DTD SVG 1.1//EN" "http://www.w3.org/Graphics/SVG/1.1/DTD/svg11.dtd" >
<svg xmlns="http://www.w3.org/2000/svg">
<metadata>Generated by IcoMoon</metadata>
<defs>
<font id="icomoon" horiz-adv-x="1024">
<font-face units-per-em="1024" ascent="960" descent="-64" />
<missing-glyph horiz-adv-x="1024" />
<glyph unicode="&#x20;" horiz-adv-x="512" d="" />
<glyph unicode="&#xe900;" glyph-name="icon3x" d="M339.418 83.558h-60.145c-70.692 0-128 57.308-128 128v201.003c0 70.692 57.308 128 128 128h45.421c62.354 21.391 87.999 52.298 96.232 99.168 2.664 15.165 3.385 27.854 3.874 56.599 0.747 43.862 2.666 61.067 13.522 81.814 16.221 30.998 47.202 45.268 90.842 43.855 114.246-3.701 155.531-89.909 128.722-236.761h65.047c83.919 0 151.66-69.123 151.66-154.043 0-17.015-2.775-33.915-8.215-50.013l-41.678-123.332c-35.21-104.194-131.562-174.291-240.022-174.291h-245.26zM352.436 153.377h232.242c78.33 0 148.197 50.829 173.878 126.824l41.678 123.332c3.005 8.892 4.54 18.242 4.54 27.661 0 46.672-36.802 84.225-81.842 84.225h-108.368c-22.723 0-39.389 21.365-33.86 43.405 34.196 136.293 14.133 191.193-53.801 193.393-18.994 0.615-24.308-1.832-26.721-6.444-3.704-7.078-5.037-19.029-5.575-50.632-0.551-32.372-1.413-47.543-4.917-67.491-12.347-70.289-53.981-121.249-137.256-151.332v-322.942zM279.273 470.743c-32.133 0-58.182-26.049-58.182-58.182v-201.003c0-32.133 26.049-58.182 58.182-58.182h3.345v317.367h-3.345z" />
<glyph unicode="&#xe914;" glyph-name="icon3x4" d="M512 64c-212.077 0-384 171.923-384 384s171.923 384 384 384c212.077 0 384-171.923 384-384s-171.923-384-384-384zM512 128c176.731 0 320 143.269 320 320s-143.269 320-320 320c-176.731 0-320-143.269-320-320s143.269-320 320-320zM292.267 448c0 15.317 12.417 27.733 27.733 27.733s27.733-12.417 27.733-27.733c0-90.722 73.545-164.267 164.267-164.267s164.267 73.545 164.267 164.267c0 15.317 12.417 27.733 27.733 27.733s27.733-12.417 27.733-27.733c0-121.355-98.378-219.733-219.733-219.733s-219.733 98.378-219.733 219.733zM414.667 502.667c-23.564 0-42.667 19.103-42.667 42.667s19.103 42.667 42.667 42.667c23.564 0 42.667-19.103 42.667-42.667s-19.103-42.667-42.667-42.667zM624.667 502.667c-23.564 0-42.667 19.103-42.667 42.667s19.103 42.667 42.667 42.667c23.564 0 42.667-19.103 42.667-42.667s-19.103-42.667-42.667-42.667z" />
<glyph unicode="&#xe915;" glyph-name="icon13" d="M512 768c147.509 0 283.606-74.388 376.845-199.729 52.206-69.747 52.206-170.796 0.005-240.535-93.953-125.556-229.525-199.736-376.851-199.736-147.014 0-283.014 74.336-376.845 199.729-52.206 69.747-52.206 170.796-0.005 240.535 93.953 125.556 229.525 199.736 376.851 199.736zM512 704c-129.962 0-245.849-67.491-325.609-174.080-35.188-47.011-35.188-116.829 0-163.84 79.76-106.589 196.116-174.080 325.609-174.080 129.962 0 245.849 67.491 325.609 174.080 35.188 47.011 35.188 116.829 0 163.84-79.291 106.589-195.647 174.080-325.609 174.080zM336.367 448.565c0 93.904 79.119 170.291 176.37 170.291s176.365-76.387 176.365-170.291c0-93.899-79.114-170.286-176.365-170.286s-176.37 76.387-176.37 170.286zM400.367 448.565c0-58.039 49.971-106.286 112.37-106.286 62.397 0 112.365 48.245 112.365 106.286 0 58.045-49.967 106.291-112.365 106.291s-112.37-48.247-112.37-106.291z" />
<glyph unicode="&#xe917;" glyph-name="icon14" d="M512-64c-282.77 0-512 229.23-512 512s229.23 512 512 512c282.77 0 512-229.23 512-512s-229.23-512-512-512zM512 32c229.75 0 416 186.25 416 416s-186.25 416-416 416c-229.75 0-416-186.25-416-416s186.25-416 416-416zM596.852 332.229c16.853 20.463 47.103 23.391 67.567 6.538s23.391-47.103 6.538-67.567c-37.054-44.993-95.882-71.666-159.151-71.666-62.957 0-121.524 26.408-158.619 71.022-16.948 20.384-14.163 50.648 6.221 67.597s50.648 14.163 67.597-6.221c18.508-22.26 49.863-36.398 84.802-36.398 35.103 0 66.581 14.272 85.047 36.694z" />
<glyph unicode="&#xe918;" glyph-name="icon15" d="M560 476.366h176c26.51 0 48-21.49 48-48s-21.49-48-48-48h-224c-26.51 0-48 21.49-48 48 0 3.364 0.346 6.648 1.005 9.817-0.659 3.169-1.005 6.453-1.005 9.817v224c0 26.51 21.49 48 48 48s48-21.49 48-48v-195.634zM512-64c-282.77 0-512 229.23-512 512s229.23 512 512 512c282.77 0 512-229.23 512-512s-229.23-512-512-512zM512 32c229.75 0 416 186.25 416 416s-186.25 416-416 416c-229.75 0-416-186.25-416-416s186.25-416 416-416z" />
<glyph unicode="&#xe919;" glyph-name="icon16" d="M184.057 216.965c1.258 1.12-11.535-10.132-14.86-13.208-6.522-6.034-11.217-11.027-15.027-16.562-17.649-25.64-6.609-55.203 24.461-64.468 104.857-31.267 219.421-44.001 320.676-44.001 206.186 0 373.333 167.147 373.333 373.333s-167.147 373.333-373.333 373.333c-206.186 0-373.333-167.147-373.333-373.333 0-80.649 25.679-157.475 72.412-221-2.83-3.361-7.539-8.052-14.327-14.094zM260.224 210.227c7.682 17.937 6.139 37.279-6.308 53.468-41.241 53.637-63.943 119.233-63.943 188.365 0 170.84 138.493 309.333 309.333 309.333s309.333-138.493 309.333-309.333c0-170.84-138.493-309.333-309.333-309.333-84.205 0-178.627 9.382-266.978 31.616 14.012 12.963 22.385 23.019 27.896 35.885z" />
<glyph unicode="&#xe91a;" glyph-name="icon17" d="M397.969 179.36l-110.7-0.352c-26.51-0.084-48.068 21.337-48.153 47.847-0.001 0.381 0.002 0.762 0.010 1.143l2.284 110.677-78.526 78.028c-18.805 18.685-18.902 49.077-0.216 67.882 0.269 0.27 0.541 0.538 0.816 0.801l79.876 76.645-0.352 110.7c-0.084 26.51 21.337 48.068 47.847 48.153 0.381 0.001 0.762-0.002 1.143-0.010l110.677-2.284 78.028 78.526c18.685 18.805 49.077 18.902 67.882 0.216 0.27-0.269 0.538-0.541 0.801-0.816l76.645-79.876 110.7 0.352c26.51 0.084 48.068-21.337 48.153-47.847 0.001-0.381-0.002-0.762-0.010-1.143l-2.284-110.677 78.526-78.028c18.805-18.685 18.902-49.077 0.216-67.882-0.269-0.27-0.541-0.538-0.816-0.801l-79.876-76.645 0.352-110.7c0.084-26.51-21.337-48.068-47.847-48.153-0.381-0.001-0.762 0.002-1.143 0.010l-110.677 2.284-78.028-78.526c-18.685-18.805-49.077-18.902-67.882-0.216-0.27 0.269-0.538 0.541-0.801 0.816l-76.645 79.876zM403.78 466.135c-14.702 15.285-39.011 15.757-54.296 1.055s-15.757-39.011-1.055-54.296l98.497-102.4c14.929-15.521 39.702-15.732 54.893-0.468l185.175 186.064c14.96 15.032 14.902 39.345-0.13 54.306s-39.345 14.902-54.306-0.13l-157.49-158.245-71.289 74.114z" />
<glyph unicode="&#xe91b;" glyph-name="icon18" d="M809.974 658.446v-343.433c0-98.464-79.821-178.286-178.286-178.286h-239.377c-98.464 0-178.286 79.821-178.286 178.286v343.433h-47.792c-17.673 0-32 14.327-32 32s14.327 32 32 32h691.532c17.673 0 32-14.327 32-32s-14.327-32-32-32h-47.792zM278.026 658.446v-343.433c0-63.118 51.167-114.286 114.286-114.286h239.377c63.118 0 114.286 51.167 114.286 114.286v343.433h-467.948zM398.331 544.671c0 17.673 14.327 32 32 32s32-14.327 32-32v-227.763c0-17.673-14.327-32-32-32s-32 14.327-32 32v227.763zM561.79 544.671c0 17.673 14.327 32 32 32s32-14.327 32-32v-227.763c0-17.673-14.327-32-32-32s-32 14.327-32 32v227.763zM437.61 866.909h148.779c17.673 0 32-14.327 32-32s-14.327-32-32-32h-148.779c-17.673 0-32 14.327-32 32s14.327 32 32 32z" />
<glyph unicode="&#xe91c;" glyph-name="icon19" d="M544 465.274h192c17.673 0 32-14.327 32-32s-14.327-32-32-32h-224c-17.673 0-32 14.327-32 32 0 2.534 0.295 4.999 0.851 7.363-0.557 2.364-0.851 4.829-0.851 7.363v224c0 17.673 14.327 32 32 32s32-14.327 32-32v-206.726zM512 64c-212.077 0-384 171.923-384 384s171.923 384 384 384c212.077 0 384-171.923 384-384s-171.923-384-384-384zM512 128c176.731 0 320 143.269 320 320s-143.269 320-320 320c-176.731 0-320-143.269-320-320s143.269-320 320-320z" />
<glyph unicode="&#xe91d;" glyph-name="icon1x2" d="M379.187 246.601l122.252 66.752v-302.686c0-5.891 4.776-10.667 10.667-10.667h3.23c5.891 0 10.667 4.776 10.667 10.667v300.806l118.809-64.872c4.995-2.727 11.251-1.053 14.216 3.804l0.92 1.508c2.705 4.432 1.306 10.217-3.126 12.923-0.195 0.117-0.195 0.117-0.393 0.227l-139.005 75.899c-1.637 0.894-3.403 1.329-5.643 1.31-1.803 0.018-3.569-0.417-5.206-1.31l-139.005-75.899c-4.557-2.488-6.234-8.2-3.746-12.757 0.11-0.198 0.11-0.198 0.227-0.393l0.92-1.508c2.965-4.857 9.221-6.531 14.216-3.804zM515.54 909.021c-147.219 0-258.094-93.577-270.996-233.829l-1.59-17.287-17.249-1.957c-113.963-12.928-195.317-105.504-200.396-224.22-5.667-132.45 85.536-226.708 228.62-226.708 5.891 0 10.667 4.776 10.667 10.667s-4.776 10.667-10.667 10.667c-130.404 0-212.472 83.734-207.306 204.463 5.032 117.602 90.815 205.374 207.306 205.374 5.891 0 10.667 4.776 10.667 10.667 0 143.462 105.221 240.83 250.945 240.83s250.945-97.368 250.945-240.83c0-5.891 4.776-10.667 10.667-10.667 111.325 0 186.594-86.108 186.594-204.918s-75.269-204.919-186.594-204.919c-5.891 0-10.667-4.776-10.667-10.667s4.776-10.667 10.667-10.667c123.196 0 207.927 95.060 207.927 226.252 0 120.253-71.815 211.451-179.862 224.582l-17.099 2.078-1.572 17.153c-12.857 140.31-123.747 233.935-271.006 233.935z" />
<glyph unicode="&#xe91e;" glyph-name="icon3x6" d="M539.066 793.906c102.819-3.305 135.773-85.178 100.911-236.777h93.603c70.982 0 128.372-58.601 128.372-130.746 0-14.522-2.327-28.905-6.935-42.589l-41.705-123.299c-32.023-94.813-119.575-158.487-217.972-158.487h-195.91c-19.316 0-34.909 15.639-34.909 34.956v363.473c0 13.265 7.82 24.809 19.409 31.279 42.217 23.692 63.023 56.134 70.563 99.188 2.979 16.71 3.724 30.255 4.236 60.23 0.698 39.75 2.42 55.203 10.845 71.401 3.677 7.028 8.425 12.847 14.336 17.501 12.753 10.054 30.906 14.662 55.156 13.871zM226.979 513.323h18.385c25.706 0 46.545-20.839 46.545-46.545v-317.44c0-25.706-20.839-46.545-46.545-46.545h-18.385c-35.86 0-64.931 29.071-64.931 64.931v280.669c0 35.86 29.071 64.931 64.931 64.931z" />
<glyph unicode="&#xe91f;" glyph-name="icon20" d="M176 736c0-26.51-21.49-48-48-48s-48 21.49-48 48c0 97.202 78.798 176 176 176h512c97.202 0 176-78.798 176-176v-576c0-97.202-78.798-176-176-176h-512c-97.202 0-176 78.798-176 176 0 26.51 21.49 48 48 48s48-21.49 48-48c0-44.183 35.817-80 80-80h512c44.183 0 80 35.817 80 80v576c0 44.183-35.817 80-80 80h-512c-44.183 0-80-35.817-80-80zM615.802 474.838c1.725-2.554 3.211-5.282 4.426-8.154 7.287-17.956 3.772-38.566-10.287-52.625l-192-192c-18.745-18.745-49.137-18.745-67.882 0s-18.745 49.137 0 67.882l110.059 110.059h-332.118c-26.51 0-48 21.49-48 48s21.49 48 48 48h332.118l-110.059 110.059c-18.745 18.745-18.745 49.137 0 67.882s49.137 18.745 67.882 0l192-192c2.26-2.26 4.247-4.689 5.962-7.246l-0.101 0.143z" />
<glyph unicode="&#xe920;" glyph-name="icon3x7" d="M401.902 64.368c168.046 7.699 304.077 113.895 304.077 226.998 0 113.008-136.031 182.898-304.077 175.104-167.952-7.825-303.7-98.625-303.7-211.886 0-113.135 135.749-198.136 303.7-190.216zM759.494 431.874c40.050-8.047 165.849-66.88 96.64-215.593-69.24-148.428-297.58-220.694-466.756-207.292-160.795 12.768-367.541 66.658-388.885 263.084 0 0-11.299 88.962 74.136 204.061 0 0 122.88 173.235 266.005 222.658 143.282 49.201 159.979-34.058 159.979-83.259-7.627-41.756-21.877-66.278 31.921-49.455 0 0 140.802 65.929 198.742 7.445 46.767-47.206 7.721-112.153 7.721-112.153s-19.397-21.67 20.496-29.496zM430.69 254.506c10.452 8.301 14.501 22.811 8.82 32.442-5.618 9.441-18.644 12.166-31.167 2.756-10.797-7.952-12.994-23.064-7.125-32.474 5.65-9.663 18.801-10.772 29.472-2.725zM331.13 168.871c31.418 3.612 56.967 28.133 56.967 54.651 0 26.644-23.572 47.712-59.792 44.227-31.575-3.327-54.143-31.080-54.143-57.597 0-26.644 25.423-44.988 56.967-41.281zM373.722 393.050c169.176 19.801 199.37-143.264 147.927-210.302-51.443-67.007-153.2-99.734-252.037-45.716-47.018 25.757-45.291 76.353-45.291 76.353s-19.523 159.707 149.402 179.666zM839.856 498.539c-15.38 0-27.872 12.387-27.872 27.88 0 0 27.369 125.142-96.609 97.516-15.317 0-27.621 12.514-27.621 27.88 0 15.587 12.304 28.133 27.621 28.133 0 0 172.597 32.22 151.976-155.018 0-1.109-0.126-1.996-0.377-2.978-1.946-13.243-13.496-23.413-27.118-23.413zM819.734 825.335c106.778-25.155 253.356-129.356 187.443-351.127h-0.251c-4.551-31.682-20.119-34.248-38.7-34.248-22.191 0-40.113 14.098-40.113 36.529 0 19.421 7.972 39.19 7.972 39.19 2.354 8.142 21.123 58.991-12.366 134.932-61.424 104.074-185.026 105.595-199.621 99.67-14.752-5.829-36.472-8.776-36.472-8.776-22.348 0-40.269 18.375-40.269 40.679 0 18.724 12.398 34.565 29.347 39.38 0 0 0.377 0.634 0.973 0.76 1.224 0.253 2.48 1.521 3.798 1.647 17.2 3.327 78.593 15.461 138.26 1.362z" />
<glyph unicode="&#xe921;" glyph-name="icon3x8" d="M728.454 627.944c-25.315 4.392-51.639 6.711-78.655 6.711-197.126 0-357.457-123.445-357.457-275.24 0-36.101 9.069-70.599 25.545-102.214-22.84 3.93-44.963 9.74-66.051 17.328l-106.58-61.607c-3.061-1.834-19.938-0.774-23.805 2.893-6.445 6.153-8.137 15.891-4.189 23.917l41.609 84.22c-79.19 58.225-124.263 142.119-124.263 232.615 0 168.522 158.098 305.589 352.448 305.589 156.849 0 292.471-87.439 337.464-217.661 0.751-2.127 2.328-8.649 3.935-16.551v0zM289.034 649.565c19.774 0 35.804 15.962 35.804 35.652s-16.030 35.652-35.804 35.652c-19.774 0-35.804-15.962-35.804-35.652s16.030-35.652 35.804-35.652zM463.933 649.565c19.774 0 35.804 15.962 35.804 35.652s-16.030 35.652-35.804 35.652c-19.774 0-35.804-15.962-35.804-35.652s16.030-35.652 35.804-35.652zM879.452 33.844c-3.342 0-6.684 0.756-9.851 2.358l-109.017 55.161c-33.070-8.63-66.976-12.989-101.014-12.989-181.886 0-329.822 119.708-329.822 266.907s147.936 266.907 329.822 266.907c181.886 0 329.822-119.708 329.822-266.907 0-79.316-44.284-154.895-119.396-205.34l29.86-75.579c3.386-8.541 1.187-18.372-5.497-24.644-4.178-3.87-9.499-5.872-14.908-5.872zM540.45 399.595c19.774 0 35.804 15.962 35.804 35.652s-16.030 35.652-35.804 35.652c-19.774 0-35.804-15.962-35.804-35.652s16.030-35.652 35.804-35.652zM759.073 399.595c19.774 0 35.804 15.962 35.804 35.652s-16.030 35.652-35.804 35.652c-19.774 0-35.804-15.962-35.804-35.652s16.030-35.652 35.804-35.652z" />
<glyph unicode="&#xe922;" glyph-name="icon21" d="M698.591 54.701c-441.068-247.659-698.591-103.424-698.591 391.915s246.639 643.234 687.706 395.553c441.068-247.68 451.953-539.788 10.885-787.468zM651.59 138.408c372.305 209.067 368.311 407.118-10.888 620.056-375.259 210.726-544.702 112.172-544.702-311.848 0-420.864 177.594-520.452 555.59-308.208zM564.011 300.513c-165.4-92.872-261.972-38.784-261.972 146.968s92.489 241.213 257.89 148.333c165.4-92.88 169.482-202.421 4.082-295.301zM517.009 384.22c98.181 55.133 97.868 70.637-4.085 127.888-100.806 56.607-114.885 48.418-114.885-64.627 0-111.332 16.691-120.691 118.97-63.261z" />
<glyph unicode="&#xe923;" glyph-name="uniE923" d="M498.314 388.861l257.221 206.206c18.386 14.739 45.238 11.783 59.977-6.603s11.783-45.238-6.603-59.977l-283.854-227.556c-15.57-12.482-37.712-12.504-53.307-0.054l-285.035 227.556c-18.415 14.702-21.426 41.549-6.724 59.964s41.549 21.426 59.964 6.724l258.36-206.26z" />
<glyph unicode="&#xe924;" glyph-name="icon1x3" d="M256 960h512c70.692 0 128-57.308 128-128v-768c0-70.692-57.308-128-128-128h-512c-70.692 0-128 57.308-128 128v768c0 70.692 57.308 128 128 128zM256 896c-35.346 0-64-28.654-64-64v-768c0-35.346 28.654-64 64-64h512c35.346 0 64 28.654 64 64v768c0 35.346-28.654 64-64 64h-512zM480.106 447.936v266.731c0 17.673 14.327 32 32 32h3.23c17.673 0 32-14.327 32-32v-264.851l87.252 47.641c14.984 8.182 33.752 3.159 42.648-11.412l0.92-1.508c8.845-14.488 4.27-33.403-10.218-42.247-0.422-0.258-0.851-0.506-1.286-0.743l-139.005-75.899c-4.966-2.712-10.348-3.973-15.648-3.919-5.3-0.054-10.682 1.207-15.648 3.919l-139.005 75.899c-14.898 8.135-20.381 26.806-12.246 41.704 0.237 0.434 0.485 0.863 0.743 1.286l0.92 1.508c8.896 14.572 27.664 19.594 42.648 11.412l90.695-49.521zM704 106.667c0-17.673-14.327-32-32-32h-320c-17.673 0-32 14.327-32 32s14.327 32 32 32h320c17.673 0 32-14.327 32-32z" />
<glyph unicode="&#xe925;" glyph-name="icon22" d="M163.077 800l297.43-276.305c26.628-24.736 71.162-24.736 97.79 0l297.43 276.305h-692.65zM928 736.108l-304.365-282.746c-63.465-58.958-165.001-58.958-228.467 0l-299.169 277.92v-584.995c0-17.673 14.327-32 32-32h768c17.673 0 32 14.327 32 32v589.822zM128 896h768c70.692 0 128-57.308 128-128v-621.714c0-70.692-57.308-128-128-128h-768c-70.692 0-128 57.308-128 128v621.714c0 70.692 57.308 128 128 128z" />
<glyph unicode="&#xe926;" glyph-name="1" d="M656.473 448.536l-206.206 257.221c-14.739 18.386-11.783 45.238 6.603 59.977s45.238 11.783 59.977-6.603l227.556-283.854c12.482-15.57 12.504-37.712 0.054-53.307l-227.556-285.035c-14.702-18.415-41.549-21.426-59.964-6.724s-21.426 41.549-6.724 59.964l206.26 258.36z" />
<glyph unicode="&#xe927;" glyph-name="icon23" d="M512 102.4c-190.87 0-345.6 154.73-345.6 345.6s154.73 345.6 345.6 345.6c190.87 0 345.6-154.73 345.6-345.6s-154.73-345.6-345.6-345.6zM561.73 448.611c19.118 15.274 31.099 39.052 31.099 65.601v27.345c0 45.53-35.049 83.807-81.315 83.807h-1.693c-46.266 0-81.308-38.277-81.308-83.807v-27.345c0-26.465 11.902-50.187 30.92-65.461-56.125-24.762-102.362-82.32-102.362-110.035v-1.843c0-9.85 10.338-18.709 21.433-18.709h264.335c7.93 0 21.433 6.15 21.433 18.709v1.843c0 27.659-46.716 85.057-102.54 109.895z" />
<glyph unicode="&#xe928;" glyph-name="qq-icon3x1" d="M867.662 332.079c-18.172 58.889-39.061 108.378-71.189 189.389 4.997 212.758-82.662 384.832-284.524 384.832-204.142 0-289.865-175.52-284.412-384.832-32.24-81.113-53.017-130.265-71.189-189.389-38.605-125.448-26.108-177.351-16.571-178.497 20.443-2.516 79.591 94.408 79.591 94.408 0-56.138 28.611-129.355 90.598-182.168-29.98-9.286-97.307-34.261-81.294-61.64 12.943-22.111 222.76-14.093 283.277-7.22 60.517-6.873 270.334-14.891 283.277 7.22 16.014 27.276-51.426 52.364-81.284 61.64 61.986 52.926 90.608 126.143 90.608 182.168 0 0 59.149-96.924 79.591-94.408 9.639 1.268 22.125 53.161-16.48 178.497v0z" />
</font>
</defs>
</svg>
